<svg width="80" height="80" viewBox="0 0 80 80" fill="none" xmlns="http://www.w3.org/2000/svg">
<g clip-path="url(#clip0_162_1322)">
<path d="M80 0H0V80H80V0Z" fill="#0D7CF2" fill-opacity="0.15"/>
<path fill-rule="evenodd" clip-rule="evenodd" d="M24.3487 37.9995H30.9969C31.4096 33.3209 32.9438 28.8254 35.4497 24.888C29.5716 26.6559 25.138 31.7597 24.3487 37.9995ZM40.0009 25.3438C37.2115 29.0237 35.4854 33.4026 35.0149 37.9995H44.9869C44.5165 33.4026 42.7904 29.0237 40.0009 25.3438ZM44.9869 41.9995C44.5165 46.5963 42.7904 50.9753 40.0009 54.6554C37.2115 50.9753 35.4854 46.5964 35.0149 41.9995H44.9869ZM30.9969 41.9995H24.3487C25.138 48.2394 29.5717 53.3433 35.4497 55.1112C32.9439 51.1736 31.4096 46.6781 30.9969 41.9995ZM44.5521 55.1112C47.058 51.1736 48.5923 46.6781 49.0049 41.9995H55.653C54.8637 48.2394 50.4302 53.3433 44.5521 55.1112ZM55.653 37.9995H49.0049C48.5923 33.3209 47.0581 28.8254 44.5522 24.888C50.4302 26.6559 54.8637 31.7597 55.653 37.9995ZM20.2231 39.9995C20.2231 29.0765 29.0779 20.2217 40.0009 20.2217C50.924 20.2217 59.7786 29.0766 59.7786 39.9995C59.7786 50.9224 50.924 59.7775 40.0009 59.7775C29.0779 59.7775 20.2231 50.9225 20.2231 39.9995Z" fill="#0D7CF2"/>
</g>
<defs>
<clipPath id="clip0_162_1322">
<rect width="80" height="80" fill="white"/>
</clipPath>
</defs>
</svg>
