<svg width="32" height="32" viewBox="0 0 32 20" fill="none"
	xmlns="http://www.w3.org/2000/svg">
	<path d="M6.55106 4.1621C11.7696 -0.947262 20.2305 -0.947262 25.449 4.1621L26.077 4.77702C26.3379 5.03249 26.3379 5.44668 26.077 5.70215L23.9286 7.80567C23.7981 7.9334 23.5866 7.9334 23.4561 7.80567L22.5918 6.95946C18.9513 3.39505 13.0488 3.39505 	9.40819 6.95946L8.48262 7.86568C8.35216 7.99341 8.14063 7.99341 8.01017 7.86568L5.86172 5.76216C5.60079 5.50669 5.60079 5.09249 5.86172 4.83703L6.55106 4.1621ZM29.8922 8.51239L31.8043 10.3845C32.0652 10.64 32.0652 11.0542 31.8043 11.3097L23.1824 19.7514C22.9215 20.0068 22.4984 20.0069 22.2375 19.7514L16.1182 13.76C16.0529 13.6962 15.9472 13.6962 15.8819 13.76L9.76276 19.7514C9.50183 20.0068 9.07879 20.0069 8.81786 19.7514L0.195694 11.3096C-0.0652314 11.0541 -0.0652314 10.6399 0.195694 10.3844L2.10783 8.51229C2.36875 8.25682 2.7918 8.25682 3.05272 8.51229L9.17213 14.5037C9.23736 14.5676 9.34312 14.5676 9.40835 14.5037L15.5275 8.51229C15.7884 8.25681 16.2114 8.2568 16.4723 8.51227L22.5918 14.5037C22.657 14.5676 22.7628 14.5676 22.828 14.5037L28.9473 8.51239C29.2082 8.25693 29.6313 8.25693 29.8922 8.51239Z" fill="#03ACDA"/>
	<path d="M6.55106 4.1621C11.7696 -0.947262 20.2305 -0.947262 25.449 4.1621L26.077 4.77702C26.3379 5.03249 26.3379 5.44668 26.077 5.70215L23.9286 7.80567C23.7981 7.9334 23.5866 7.9334 23.4561 7.80567L22.5918 6.95946C18.9513 3.39505 13.0488 3.39505 9.40819 6.95946L8.48262 7.86568C8.35216 7.99341 8.14063 7.99341 8.01017 7.86568L5.86172 5.76216C5.60079 5.50669 5.60079 5.09249 5.86172 4.83703L6.55106 4.1621ZM29.8922 8.51239L31.8043 10.3845C32.0652 10.64 32.0652 11.0542 31.8043 11.3097L23.1824 19.7514C22.9215 20.0068 22.4984 20.0069 22.2375 19.7514L16.1182 13.76C16.0529 13.6962 15.9472 13.6962 15.8819 13.76L9.76276 19.7514C9.50183 20.0068 9.07879 20.0069 8.81786 19.7514L0.195694 11.3096C-0.0652314 11.0541 -0.0652314 10.6399 0.195694 10.3844L2.10783 8.51229C2.36875 8.25682 2.7918 8.25682 3.05272 8.51229L9.17213 14.5037C9.23736 14.5676 9.34312 14.5676 9.40835 14.5037L15.5275 8.51229C15.7884 8.25681 16.2114 8.2568 16.4723 8.51227L22.5918 14.5037C22.657 14.5676 22.7628 14.5676 22.828 14.5037L28.9473 8.51239C29.2082 8.25693 29.6313 8.25693 29.8922 8.51239Z" fill="url(#paint0_radial_160_2638)"/>
	<path d="M6.55106 4.1621C11.7696 -0.947262 20.2305 -0.947262 25.449 4.1621L26.077 4.77702C26.3379 5.03249 26.3379 5.44668 26.077 5.70215L23.9286 7.80567C23.7981 7.9334 23.5866 7.9334 23.4561 7.80567L22.5918 6.95946C18.9513 3.39505 13.0488 3.39505 9.40819 6.95946L8.48262 7.86568C8.35216 7.99341 8.14063 7.99341 8.01017 7.86568L5.86172 5.76216C5.60079 5.50669 5.60079 5.09249 5.86172 4.83703L6.55106 4.1621ZM29.8922 8.51239L31.8043 10.3845C32.0652 10.64 32.0652 11.0542 31.8043 11.3097L23.1824 19.7514C22.9215 20.0068 22.4984 20.0069 22.2375 19.7514L16.1182 13.76C16.0529 13.6962 15.9472 13.6962 15.8819 13.76L9.76276 19.7514C9.50183 20.0068 9.07879 20.0069 8.81786 19.7514L0.195694 11.3096C-0.0652314 11.0541 -0.0652314 10.6399 0.195694 10.3844L2.10783 8.51229C2.36875 8.25682 2.7918 8.25682 3.05272 8.51229L9.17213 14.5037C9.23736 14.5676 9.34312 14.5676 9.40835 14.5037L15.5275 8.51229C15.7884 8.25681 16.2114 8.2568 16.4723 8.51227L22.5918 14.5037C22.657 14.5676 22.7628 14.5676 22.828 14.5037L28.9473 8.51239C29.2082 8.25693 29.6313 8.25693 29.8922 8.51239Z" fill="url(#paint1_radial_160_2638)"/>
	<path d="M6.55106 4.1621C11.7696 -0.947262 20.2305 -0.947262 25.449 4.1621L26.077 4.77702C26.3379 5.03249 26.3379 5.44668 26.077 5.70215L23.9286 7.80567C23.7981 7.9334 23.5866 7.9334 23.4561 7.80567L22.5918 6.95946C18.9513 3.39505 13.0488 3.39505 9.40819 6.95946L8.48262 7.86568C8.35216 7.99341 8.14063 7.99341 8.01017 7.86568L5.86172 5.76216C5.60079 5.50669 5.60079 5.09249 5.86172 4.83703L6.55106 4.1621ZM29.8922 8.51239L31.8043 10.3845C32.0652 10.64 32.0652 11.0542 31.8043 11.3097L23.1824 19.7514C22.9215 20.0068 22.4984 20.0069 22.2375 19.7514L16.1182 13.76C16.0529 13.6962 15.9472 13.6962 15.8819 13.76L9.76276 19.7514C9.50183 20.0068 9.07879 20.0069 8.81786 19.7514L0.195694 11.3096C-0.0652314 11.0541 -0.0652314 10.6399 0.195694 10.3844L2.10783 8.51229C2.36875 8.25682 2.7918 8.25682 3.05272 8.51229L9.17213 14.5037C9.23736 14.5676 9.34312 14.5676 9.40835 14.5037L15.5275 8.51229C15.7884 8.25681 16.2114 8.2568 16.4723 8.51227L22.5918 14.5037C22.657 14.5676 22.7628 14.5676 22.828 14.5037L28.9473 8.51239C29.2082 8.25693 29.6313 8.25693 29.8922 8.51239Z" fill="url(#paint2_radial_160_2638)"/>
	<path d="M6.55106 4.1621C11.7696 -0.947262 20.2305 -0.947262 25.449 4.1621L26.077 4.77702C26.3379 5.03249 26.3379 5.44668 26.077 5.70215L23.9286 7.80567C23.7981 7.9334 23.5866 7.9334 23.4561 7.80567L22.5918 6.95946C18.9513 3.39505 13.0488 3.39505 9.40819 6.95946L8.48262 7.86568C8.35216 7.99341 8.14063 7.99341 8.01017 7.86568L5.86172 5.76216C5.60079 5.50669 5.60079 5.09249 5.86172 4.83703L6.55106 4.1621ZM29.8922 8.51239L31.8043 10.3845C32.0652 10.64 32.0652 11.0542 31.8043 11.3097L23.1824 19.7514C22.9215 20.0068 22.4984 20.0069 22.2375 19.7514L16.1182 13.76C16.0529 13.6962 15.9472 13.6962 15.8819 13.76L9.76276 19.7514C9.50183 20.0068 9.07879 20.0069 8.81786 19.7514L0.195694 11.3096C-0.0652314 11.0541 -0.0652314 10.6399 0.195694 10.3844L2.10783 8.51229C2.36875 8.25682 2.7918 8.25682 3.05272 8.51229L9.17213 14.5037C9.23736 14.5676 9.34312 14.5676 9.40835 14.5037L15.5275 8.51229C15.7884 8.25681 16.2114 8.2568 16.4723 8.51227L22.5918 14.5037C22.657 14.5676 22.7628 14.5676 22.828 14.5037L28.9473 8.51239C29.2082 8.25693 29.6313 8.25693 29.8922 8.51239Z" fill="url(#paint3_radial_160_2638)"/>
	<path d="M6.55106 4.1621C11.7696 -0.947262 20.2305 -0.947262 25.449 4.1621L26.077 4.77702C26.3379 5.03249 26.3379 5.44668 26.077 5.70215L23.9286 7.80567C23.7981 7.9334 23.5866 7.9334 23.4561 7.80567L22.5918 6.95946C18.9513 3.39505 13.0488 3.39505 9.40819 6.95946L8.48262 7.86568C8.35216 7.99341 8.14063 7.99341 8.01017 7.86568L5.86172 5.76216C5.60079 5.50669 5.60079 5.09249 5.86172 4.83703L6.55106 4.1621ZM29.8922 8.51239L31.8043 10.3845C32.0652 10.64 32.0652 11.0542 31.8043 11.3097L23.1824 19.7514C22.9215 20.0068 22.4984 20.0069 22.2375 19.7514L16.1182 13.76C16.0529 13.6962 15.9472 13.6962 15.8819 13.76L9.76276 19.7514C9.50183 20.0068 9.07879 20.0069 8.81786 19.7514L0.195694 11.3096C-0.0652314 11.0541 -0.0652314 10.6399 0.195694 10.3844L2.10783 8.51229C2.36875 8.25682 2.7918 8.25682 3.05272 8.51229L9.17213 14.5037C9.23736 14.5676 9.34312 14.5676 9.40835 14.5037L15.5275 8.51229C15.7884 8.25681 16.2114 8.2568 16.4723 8.51227L22.5918 14.5037C22.657 14.5676 22.7628 14.5676 22.828 14.5037L28.9473 8.51239C29.2082 8.25693 29.6313 8.25693 29.8922 8.51239Z" fill="url(#paint4_radial_160_2638)"/>
	<path d="M6.55106 4.1621C11.7696 -0.947262 20.2305 -0.947262 25.449 4.1621L26.077 4.77702C26.3379 5.03249 26.3379 5.44668 26.077 5.70215L23.9286 7.80567C23.7981 7.9334 23.5866 7.9334 23.4561 7.80567L22.5918 6.95946C18.9513 3.39505 13.0488 3.39505 9.40819 6.95946L8.48262 7.86568C8.35216 7.99341 8.14063 7.99341 8.01017 7.86568L5.86172 5.76216C5.60079 5.50669 5.60079 5.09249 5.86172 4.83703L6.55106 4.1621ZM29.8922 8.51239L31.8043 10.3845C32.0652 10.64 32.0652 11.0542 31.8043 11.3097L23.1824 19.7514C22.9215 20.0068 22.4984 20.0069 22.2375 19.7514L16.1182 13.76C16.0529 13.6962 15.9472 13.6962 15.8819 13.76L9.76276 19.7514C9.50183 20.0068 9.07879 20.0069 8.81786 19.7514L0.195694 11.3096C-0.0652314 11.0541 -0.0652314 10.6399 0.195694 10.3844L2.10783 8.51229C2.36875 8.25682 2.7918 8.25682 3.05272 8.51229L9.17213 14.5037C9.23736 14.5676 9.34312 14.5676 9.40835 14.5037L15.5275 8.51229C15.7884 8.25681 16.2114 8.2568 16.4723 8.51227L22.5918 14.5037C22.657 14.5676 22.7628 14.5676 22.828 14.5037L28.9473 8.51239C29.2082 8.25693 29.6313 8.25693 29.8922 8.51239Z" fill="url(#paint5_radial_160_2638)"/>
	<path d="M6.55106 4.1621C11.7696 -0.947262 20.2305 -0.947262 25.449 4.1621L26.077 4.77702C26.3379 5.03249 26.3379 5.44668 26.077 5.70215L23.9286 7.80567C23.7981 7.9334 23.5866 7.9334 23.4561 7.80567L22.5918 6.95946C18.9513 3.39505 13.0488 3.39505 9.40819 6.95946L8.48262 7.86568C8.35216 7.99341 8.14063 7.99341 8.01017 7.86568L5.86172 5.76216C5.60079 5.50669 5.60079 5.09249 5.86172 4.83703L6.55106 4.1621ZM29.8922 8.51239L31.8043 10.3845C32.0652 10.64 32.0652 11.0542 31.8043 11.3097L23.1824 19.7514C22.9215 20.0068 22.4984 20.0069 22.2375 19.7514L16.1182 13.76C16.0529 13.6962 15.9472 13.6962 15.8819 13.76L9.76276 19.7514C9.50183 20.0068 9.07879 20.0069 8.81786 19.7514L0.195694 11.3096C-0.0652314 11.0541 -0.0652314 10.6399 0.195694 10.3844L2.10783 8.51229C2.36875 8.25682 2.7918 8.25682 3.05272 8.51229L9.17213 14.5037C9.23736 14.5676 9.34312 14.5676 9.40835 14.5037L15.5275 8.51229C15.7884 8.25681 16.2114 8.2568 16.4723 8.51227L22.5918 14.5037C22.657 14.5676 22.7628 14.5676 22.828 14.5037L28.9473 8.51239C29.2082 8.25693 29.6313 8.25693 29.8922 8.51239Z" fill="url(#paint6_radial_160_2638)"/>
	<path d="M15.5321 13.4028L15.8819 13.76L15.5321 13.4028L9.41296 19.3941C9.34641 19.4593 9.23421 19.4593 9.16766 19.3941L0.545492 10.9523C0.484836 10.8929 0.484836 10.8011 0.545491 10.7417L2.45762 8.86956C2.52418 8.8044 2.63637 8.8044 2.70292 8.86956L8.82233 14.861C9.08194 15.1151 9.49854 15.1151 9.75815 14.861L9.75816 14.861L15.8773 8.86955C15.9438 8.80439 16.056 8.80438 16.1226 8.86954L22.242 14.861C22.5016 15.1151 22.9182 15.1151 23.1778 14.861L29.2971 8.86966C29.3636 8.8045 29.4758 8.8045 29.5424 8.86966L31.4545 10.7418C31.5152 10.8012 31.5152 10.893 31.4545 10.9524L22.8326 19.3941C22.766 19.4593 22.6538 19.4593 22.5873 19.3941L16.468 13.4028C16.2084 13.1486 15.7918 13.1486 15.5321 13.4028ZM6.90086 4.51937C11.925 -0.399685 20.075 -0.399685 25.0992 4.51937L25.7272 5.13429C25.7879 5.19367 25.7879 5.28549 25.7272 5.34488L23.6923 7.3372L22.9416 6.60219C19.1067 2.84747 12.8933 2.84747 9.05839 6.60219L8.24639 7.39721L6.21151 5.40489C6.15086 5.3455 6.15086 5.25368 6.21151 5.1943L6.90086 4.51937ZM8.13282 7.50841C8.1329 7.50833 8.13298 7.50825 8.13306 7.50817L8.13282 7.50841ZM8.35973 7.50817C8.35981 7.50825 8.35989 7.50833 8.35997 7.50841L8.35973 7.50817Z" stroke="black" stroke-opacity="0.1"/>
	<defs>
		<radialGradient id="paint0_radial_160_2638" cx="0" cy="0" r="1" gradientUnits="userSpaceOnUse" gradientTransform="translate(22.875 19.7468) rotate(-127.117) scale(9.66676 15.7721)">
			<stop stop-color="#70D75B"/>
			<stop offset="0.476639" stop-color="#7CD94E"/>
			<stop offset="1" stop-color="#7CD94E" stop-opacity="0"/>
		</radialGradient>
		<radialGradient id="paint1_radial_160_2638" cx="0" cy="0" r="1" gradientUnits="userSpaceOnUse" gradientTransform="translate(18.0833 8.08012) rotate(120.964) scale(4.85913 13.2322)">
			<stop stop-color="#4567FB"/>
			<stop offset="0.923807" stop-color="#4567FB"/>
			<stop offset="1" stop-color="#4567FB" stop-opacity="0"/>
		</radialGradient>
		<radialGradient id="paint2_radial_160_2638" cx="0" cy="0" r="1" gradientUnits="userSpaceOnUse" gradientTransform="translate(19.125 -0.253213) rotate(125.655) scale(11.7943 29.3562)">
			<stop stop-color="#C4397E"/>
			<stop offset="0.321642" stop-color="#C6397F"/>
			<stop offset="1" stop-color="#C6397F" stop-opacity="0"/>
		</radialGradient>
		<radialGradient id="paint3_radial_160_2638" cx="0" cy="0" r="1" gradientUnits="userSpaceOnUse" gradientTransform="translate(27.875 8.28845) rotate(127.405) scale(8.91706 9.68628)">
			<stop stop-color="#F651CC"/>
			<stop offset="0.680716" stop-color="#F64ECC"/>
			<stop offset="1" stop-color="#F64ECC" stop-opacity="0"/>
		</radialGradient>
		<radialGradient id="paint4_radial_160_2638" cx="0" cy="0" r="1" gradientUnits="userSpaceOnUse" gradientTransform="translate(25.1667 2.87178) rotate(135) scale(5.59793 6.2095)">
			<stop stop-color="#C251FB"/>
			<stop offset="0.872726" stop-color="#C251FB"/>
			<stop offset="1" stop-color="#C251FB" stop-opacity="0"/>
		</radialGradient>
		<radialGradient id="paint5_radial_160_2638" cx="0" cy="0" r="1" gradientUnits="userSpaceOnUse" gradientTransform="translate(-0.458323 9.74679) rotate(25.1448) scale(11.277 18.3993)">
			<stop stop-color="#8551EC"/>
			<stop offset="0.720399" stop-color="#8551EC"/>
			<stop offset="1" stop-color="#8551EC" stop-opacity="0"/>
		</radialGradient>
		<radialGradient id="paint6_radial_160_2638" cx="0" cy="0" r="1" gradientUnits="userSpaceOnUse" gradientTransform="translate(7.04168 3.49679) rotate(46.6366) scale(5.15809 8.41583)">
			<stop stop-color="#10937D"/>
			<stop offset="0.479519" stop-color="#10937D"/>
			<stop offset="1" stop-color="#10937D" stop-opacity="0"/>
		</radialGradient>
	</defs>
</svg>
