<svg width="24" height="24" viewBox="0 0 24 24" fill="none" xmlns="http://www.w3.org/2000/svg">
<g clip-path="url(#clip0_7_15041)">
<path fill-rule="evenodd" clip-rule="evenodd" d="M9.33072 0C7.85796 0 6.66406 1.1939 6.66406 2.66665H17.3307C17.3307 1.1939 16.1368 0 14.664 0H9.33072ZM2.66602 6.66665C2.66602 5.1939 3.85992 4 5.33267 4H18.6659C20.1387 4 21.3326 5.1939 21.3326 6.66665H2.66602ZM1.99999 8C0.895427 8 0 8.89542 0 9.99999V21.9999C0 23.1045 0.895426 23.9999 1.99999 23.9999H21.9999C23.1045 23.9999 23.9999 23.1045 23.9999 21.9999V9.99999C23.9999 8.89542 23.1045 8 21.9999 8H1.99999ZM11.0211 11.6445V15.0215H7.64421C7.10397 15.0215 6.66602 15.4594 6.66602 15.9997C6.66602 16.5399 7.10397 16.9779 7.6442 16.9779H11.0211V20.3548C11.0211 20.895 11.4591 21.333 11.9993 21.333C12.5396 21.333 12.9775 20.895 12.9775 20.3548V16.9779H16.3544C16.8947 16.9779 17.3326 16.5399 17.3326 15.9997C17.3326 15.4594 16.8947 15.0215 16.3544 15.0215H12.9775V11.6445C12.9775 11.1043 12.5396 10.6664 11.9993 10.6664C11.4591 10.6664 11.0211 11.1043 11.0211 11.6445Z" fill="url(#paint0_linear_7_15041)"/>
<mask id="mask0_7_15041" style="mask-type:luminance" maskUnits="userSpaceOnUse" x="0" y="0" width="24" height="24">
<path fill-rule="evenodd" clip-rule="evenodd" d="M9.33072 0C7.85796 0 6.66406 1.1939 6.66406 2.66665H17.3307C17.3307 1.1939 16.1368 0 14.664 0H9.33072ZM2.66602 6.66665C2.66602 5.1939 3.85992 4 5.33267 4H18.6659C20.1387 4 21.3326 5.1939 21.3326 6.66665H2.66602ZM1.99999 8C0.895427 8 0 8.89542 0 9.99999V21.9999C0 23.1045 0.895426 23.9999 1.99999 23.9999H21.9999C23.1045 23.9999 23.9999 23.1045 23.9999 21.9999V9.99999C23.9999 8.89542 23.1045 8 21.9999 8H1.99999ZM11.0211 11.6445V15.0215H7.64421C7.10397 15.0215 6.66602 15.4594 6.66602 15.9997C6.66602 16.5399 7.10397 16.9779 7.6442 16.9779H11.0211V20.3548C11.0211 20.895 11.4591 21.333 11.9993 21.333C12.5396 21.333 12.9775 20.895 12.9775 20.3548V16.9779H16.3544C16.8947 16.9779 17.3326 16.5399 17.3326 15.9997C17.3326 15.4594 16.8947 15.0215 16.3544 15.0215H12.9775V11.6445C12.9775 11.1043 12.5396 10.6664 11.9993 10.6664C11.4591 10.6664 11.0211 11.1043 11.0211 11.6445Z" fill="black" fill-opacity="0.08"/>
</mask>
<g mask="url(#mask0_7_15041)">
<path d="M6.66406 2.66653H6.16406V3.16653H6.66406V2.66653ZM17.3307 2.66653V3.16653H17.8307V2.66653H17.3307ZM2.66602 6.66653H2.16602V7.16653H2.66602V6.66653ZM21.3326 6.66653V7.16653H21.8326V6.66653H21.3326ZM11.0211 15.0214V15.5214H11.5211V15.0214H11.0211ZM11.0211 16.9778H11.5211V16.4778H11.0211V16.9778ZM12.9775 16.9778V16.4778H12.4775V16.9778H12.9775ZM12.9775 15.0214H12.4775V15.5214H12.9775V15.0214ZM7.16406 2.66653C7.16406 1.46992 8.13411 0.499878 9.33072 0.499878V-0.500122C7.58182 -0.500122 6.16406 0.917637 6.16406 2.66653H7.16406ZM17.3307 2.16653H6.66406V3.16653H17.3307V2.16653ZM14.664 0.499878C15.8606 0.499878 16.8307 1.46992 16.8307 2.66653H17.8307C17.8307 0.917637 16.4129 -0.500122 14.664 -0.500122V0.499878ZM9.33072 0.499878H14.664V-0.500122H9.33072V0.499878ZM5.33267 3.49988C3.58378 3.49988 2.16602 4.91764 2.16602 6.66653H3.16602C3.16602 5.46992 4.13606 4.49988 5.33267 4.49988V3.49988ZM18.6659 3.49988H5.33267V4.49988H18.6659V3.49988ZM21.8326 6.66653C21.8326 4.91764 20.4148 3.49988 18.6659 3.49988V4.49988C19.8626 4.49988 20.8326 5.46992 20.8326 6.66653H21.8326ZM2.66602 7.16653H21.3326V6.16653H2.66602V7.16653ZM0.5 9.99987C0.5 9.17145 1.17157 8.49988 1.99999 8.49988V7.49988C0.619284 7.49988 -0.5 8.61916 -0.5 9.99987H0.5ZM0.5 21.9998V9.99987H-0.5V21.9998H0.5ZM1.99999 23.4998C1.17157 23.4998 0.5 22.8282 0.5 21.9998H-0.5C-0.5 23.3805 0.619284 24.4998 1.99999 24.4998V23.4998ZM21.9999 23.4998H1.99999V24.4998H21.9999V23.4998ZM23.4999 21.9998C23.4999 22.8282 22.8283 23.4998 21.9999 23.4998V24.4998C23.3806 24.4998 24.4999 23.3805 24.4999 21.9998H23.4999ZM23.4999 9.99987V21.9998H24.4999V9.99987H23.4999ZM21.9999 8.49988C22.8283 8.49988 23.4999 9.17145 23.4999 9.99987H24.4999C24.4999 8.61916 23.3806 7.49988 21.9999 7.49988V8.49988ZM1.99999 8.49988H21.9999V7.49988H1.99999V8.49988ZM11.5211 15.0214V11.6444H10.5211V15.0214H11.5211ZM7.64421 15.5214H11.0211V14.5214H7.64421V15.5214ZM7.16602 15.9996C7.16602 15.7355 7.38011 15.5214 7.64421 15.5214V14.5214C6.82782 14.5214 6.16602 15.1832 6.16602 15.9996H7.16602ZM7.6442 16.4778C7.38011 16.4778 7.16602 16.2637 7.16602 15.9996H6.16602C6.16602 16.8159 6.82782 17.4778 7.6442 17.4778V16.4778ZM11.0211 16.4778H7.6442V17.4778H11.0211V16.4778ZM11.5211 20.3547V16.9778H10.5211V20.3547H11.5211ZM11.9993 20.8329C11.7352 20.8329 11.5211 20.6188 11.5211 20.3547H10.5211C10.5211 21.1711 11.1829 21.8329 11.9993 21.8329V20.8329ZM12.4775 20.3547C12.4775 20.6188 12.2634 20.8329 11.9993 20.8329V21.8329C12.8157 21.8329 13.4775 21.1711 13.4775 20.3547H12.4775ZM12.4775 16.9778V20.3547H13.4775V16.9778H12.4775ZM16.3544 16.4778H12.9775V17.4778H16.3544V16.4778ZM16.8326 15.9996C16.8326 16.2637 16.6185 16.4778 16.3544 16.4778V17.4778C17.1708 17.4778 17.8326 16.816 17.8326 15.9996H16.8326ZM16.3544 15.5214C16.6185 15.5214 16.8326 15.7355 16.8326 15.9996H17.8326C17.8326 15.1832 17.1708 14.5214 16.3544 14.5214V15.5214ZM12.9775 15.5214H16.3544V14.5214H12.9775V15.5214ZM12.4775 11.6444V15.0214H13.4775V11.6444H12.4775ZM11.9993 11.1663C12.2634 11.1663 12.4775 11.3804 12.4775 11.6444H13.4775C13.4775 10.8281 12.8157 10.1663 11.9993 10.1663V11.1663ZM11.5211 11.6444C11.5211 11.3804 11.7352 11.1663 11.9993 11.1663V10.1663C11.1829 10.1663 10.5211 10.8281 10.5211 11.6444H11.5211Z" fill="black" fill-opacity="0.08"/>
</g>
</g>
<defs>
<linearGradient id="paint0_linear_7_15041" x1="22.1249" y1="34.8749" x2="-8.72594" y2="13.1122" gradientUnits="userSpaceOnUse">
<stop stop-color="#BFD9FF"/>
<stop offset="1" stop-color="#0D7DF2"/>
</linearGradient>
<clipPath id="clip0_7_15041">
<rect width="24" height="24" fill="white"/>
</clipPath>
</defs>
</svg>
