<svg width="12" height="12" viewBox="0 0 12 12" fill="none" xmlns="http://www.w3.org/2000/svg">
<path d="M9.94026 11C10.2332 11.2929 10.708 11.2929 11.0009 11C11.2938 10.7071 11.2938 10.2322 11.0009 9.93933L7.41514 6.35355C7.21987 6.15828 7.21987 5.8417 7.41514 5.64644L11.0009 2.06066C11.2938 1.76776 11.2938 1.29289 11.0009 0.999998C10.708 0.707105 10.2332 0.707105 9.94026 0.999998L6.35448 4.58578C6.15921 4.78104 5.84263 4.78104 5.64737 4.58578L2.06158 0.999989C1.76869 0.707096 1.29381 0.707096 1.00092 0.999989C0.708027 1.29288 0.708027 1.76776 1.00092 2.06065L4.58671 5.64644C4.78197 5.8417 4.78197 6.15828 4.58671 6.35355L1.00092 9.93934C0.708027 10.2322 0.708027 10.7071 1.00092 11C1.29381 11.2929 1.76869 11.2929 2.06158 11L5.64737 7.41421C5.84263 7.21894 6.15922 7.21894 6.35448 7.41421L9.94026 11Z" fill="#F05142"/>
</svg>
