<svg fill="none" height="12" viewBox="0 0 12 12" width="12" xmlns="http://www.w3.org/2000/svg"><path d="m9.94026 11c.29294.2929.76774.2929 1.06064 0s.2929-.7678 0-1.06067l-3.58576-3.58578c-.19527-.19527-.19527-.51185 0-.70711l3.58576-3.58578c.2929-.2929.2929-.76777 0-1.060662-.2929-.292893-.7677-.292893-1.06064 0l-3.58578 3.585782c-.19527.19526-.51185.19526-.70711 0l-3.58579-3.585791c-.29289-.292893-.76777-.292893-1.06066 0-.292893.292891-.292893.767771 0 1.060661l3.58579 3.58579c.19526.19526.19526.51184 0 .70711l-3.58579 3.58579c-.292893.29286-.292893.76776 0 1.06066.29289.2929.76777.2929 1.06066 0l3.58579-3.58579c.19526-.19527.51185-.19527.70711 0z" fill="#f05142"/></svg>