<svg fill="none" height="15" viewBox="0 0 16 15" width="16" xmlns="http://www.w3.org/2000/svg"><g fill="#f05142"><path d="m9.25 2h-2.61c-1.26085 0-2.1072.00141-2.75652.05968-.62902.05645-.92599.15687-1.12213.26874-.3889.22183-.7111.54403-.93293.93293-.11187.19614-.21229.49311-.26874 1.12213-.05827.64932-.05968 1.49567-.05968 2.75652v.72c0 1.26085.00141 2.1072.05968 2.7565.05645.629.15687.926.26874 1.1221.22183.389.54403.7112.93293.933.19614.1119.49311.2123 1.12213.2687.64932.0583 1.49567.0597 2.75652.0597h2.61c.41421 0 .75.3358.75.75s-.33579.75-.75.75h-2.61c-2.46705 0-3.70058 0-4.62183-.5255-.62225-.3549-1.137771-.8704-1.492696-1.4927-.525474-.9212-.525474-2.1547-.525474-4.6218v-.72c0-2.46705 0-3.70058.525474-4.62183.354925-.62225.870446-1.13777 1.492696-1.4927.92125-.52547 2.15478-.52547 4.62183-.52547h2.61c.41421 0 .75.335786.75.75 0 .41421-.33579.75-.75.75z"/><path d="m10.4697 11.5303c-.2929-.2929-.2929-.7677 0-1.0606l1.7929-1.79292c.1575-.15749.0459-.42678-.1768-.42678h-4.33578c-.41422 0-.75-.33579-.75-.75s.33578-.75.75-.75h4.33578c.2228 0 .3343-.26929.1768-.42678l-1.7929-1.79289c-.2929-.29289-.2929-.76777 0-1.06066s.7678-.29289 1.0607 0l3.3232 3.32322c.3905.39053.3905 1.02369 0 1.41422l-3.3232 3.32319c-.2929.2929-.7678.2929-1.0607 0z"/></g></svg>