<svg fill="none" height="28" viewBox="0 0 28 28" width="28" xmlns="http://www.w3.org/2000/svg" xmlns:xlink="http://www.w3.org/1999/xlink"><clipPath id="a"><rect height="28" rx="14" width="28"/></clipPath><g clip-path="url(#a)"><rect fill="#987de8" height="28" rx="14" width="28"/><path clip-rule="evenodd" d="m7.22377 13.2378 5.58443-9.0067c.5475-.88301 1.8322-.883 2.3797.00002l5.5861 9.00978c.2731.4404.4186.9479.4203 1.4661l.0001.0131c.002.597-.1869 1.179-.5391 1.661l-5.1497 7.0494c-.7458 1.0209-2.2695 1.0207-3.015-.0004l-5.14859-7.0523c-.34998-.4794-.53857-1.0576-.53854-1.6511v-.0135c.00002-.5214.14558-1.0323.4203-1.4754z" fill="#fff" fill-rule="evenodd"/><path d="m14.3921 4.71886c-.0915-.14445-.2428-.21667-.3941-.21666v6.9311l5.8789 2.5804c.038-.2174-.0004-.4493-.1262-.6522z" fill="#643cdd"/><path d="m13.9981 4.5022c-.1514-.00001-.3028.07237-.3943.21714l-5.36141 8.64696c-.12342.2018-.16089.4318-.12309.6475l5.8788-2.5805z" fill="#bdadeb"/><path d="m13.998 23.5873c.1419.0001.2838-.0637.377-.1913l5.2431-7.1772c.1434-.2029-.0899-.4612-.3071-.3365l-4.6158 2.649c-.2159.1238-.4565.1858-.6972.1857z" fill="#643cdd"/><path d="m8.38405 16.2222 5.23725 7.1737c.0931.1276.235.1914.3768.1915v-4.8704c-.2406 0-.4812-.062-.697-.1859l-4.6124-2.6488c-.21847-.1255-.4532.1365-.30465.3399z" fill="#bdadeb"/><path d="m19.8769 14.0138-5.8789-2.5807v6.1313c.2408 0 .4815-.0621.6975-.1861l4.7364-2.7213c.245-.1445.3995-.3836.445-.6432z" fill="#401ab3"/><path d="m13.9981 17.5646v-6.1491l-5.87896 2.5974c.04586.2633.20387.5055.4546.6496l4.72686 2.7159c.2159.1241.4567.1861.6975.1862z" fill="#7c5ae2"/></g><rect height="27" rx="13.5" stroke="#000" stroke-opacity=".1" width="27" x=".5" y=".5"/></svg>