<svg fill="none" height="12" viewBox="0 0 12 12" width="12" xmlns="http://www.w3.org/2000/svg"><path d="m1.99989 1.75c0-.41421.33578-.75.75-.75h6.75c.82841 0 1.50001.67157 1.50001 1.5v6.75c0 .41421-.3358.75-.75.75-.41423 0-.75001-.33579-.75001-.75v-5.08567c0-.22273-.26929-.33427-.42678-.17678l-7.51251 7.51255c-.29289.2928-.767763.2928-1.060656 0-.292893-.2929-.292894-.7678-.000001-1.0607l7.512617-7.51262c.15749-.15749.04595-.42678-.17677-.42678h-5.0859c-.41422 0-.75-.33579-.75-.75z" fill="#000" fill-opacity=".33"/></svg>