<svg fill="none" height="60" viewBox="0 0 60 60" width="60" xmlns="http://www.w3.org/2000/svg"><circle cx="30" cy="30" fill="#000" r="30"/><path clip-rule="evenodd" d="m36.0651 30.0001c0 3.5504-2.8781 6.4286-6.4285 6.4286s-6.4286-2.8782-6.4286-6.4286 2.8782-6.4286 6.4286-6.4286 6.4285 2.8782 6.4285 6.4286zm-18.7478-5.8163c.1178-.204.4124-.204.5302 0l6.5615 11.3649c.1178.204-.0295.4591-.2651.4591h-13.123c-.2356 0-.3829-.2551-.2651-.4591zm20.2014-.2297c-.3381 0-.6123.2741-.6123.6123v10.8673c0 .3382.2742.6123.6123.6123h10.8673c.3382 0 .6123-.2741.6123-.6123v-10.8673c0-.3382-.2741-.6123-.6123-.6123z" fill="#fff" fill-rule="evenodd"/><circle cx="30" cy="30" r="29.5" stroke="#fff" stroke-opacity=".1"/></svg>