<svg fill="none" height="14" viewBox="0 0 14 14" width="14" xmlns="http://www.w3.org/2000/svg"><path clip-rule="evenodd" d="m4.00298 4.00529c.0122-1.22535.07436-1.93631.39113-2.49167.26619-.46668.65283-.853321 1.11951-1.119515.69094-.394105 1.62276-.394105 3.48638-.394105 1.8636 0 2.7954 0 3.4864.394105.4667.266194.8533.652835 1.1195 1.119515.3941.69094.3941 1.62276.3941 3.48638s0 2.79544-.3941 3.48638c-.2662.46668-.6528.85332-1.1195 1.11951-.5554.31677-1.2663.37893-2.49167.39113l.00224.00298c-.01233 1.2221-.07476 1.9318-.39108 2.4864-.26619.4667-.65283.8533-1.11951 1.1195-.69094.3941-1.62276.3941-3.48638.3941s-2.79544 0-3.48638-.3941c-.46668-.2662-.853321-.6528-1.119515-1.1195-.394105-.6909-.394105-1.6228-.394105-3.48638 0-1.86362 0-2.79543.394105-3.48638.266194-.46668.652835-.85332 1.119515-1.11951.55456-.31631 1.26427-.37875 2.48638-.39108zm4.99702 4.49471c-.95902 0-1.57952-.00139-2.04967-.04333-.4508-.04021-.61373-.10821-.69352-.15372-.23334-.1331-.42666-.32642-.55976-.55976-.04551-.07979-.11351-.24272-.15372-.69352-.04194-.47015-.04333-1.09065-.04333-2.04967s.00139-1.57952.04333-2.04967c.04021-.4508.10821-.61373.15372-.69352.1331-.23334.32642-.42666.55976-.55976.07979-.04551.24272-.11351.69352-.15372.47015-.04194 1.09065-.04333 2.04967-.04333s1.5795.00139 2.0497.04333c.4508.04021.6137.10821.6935.15372.2333.1331.4267.32642.5597.55976.0456.07979.1136.24272.1538.69352.0419.47015.0433 1.09065.0433 2.04967s-.0014 1.57952-.0433 2.04967c-.0402.4508-.1082.61373-.1538.69352-.133.23334-.3264.42666-.5597.55976-.0798.04551-.2427.11351-.6935.15372-.4702.04194-1.09068.04333-2.0497.04333zm-5-2.99681c-.43117.00443-.7675.01499-1.04967.04016-.4508.04021-.61373.10821-.69352.15372-.23334.1331-.42666.32642-.55976.55976-.04551.07979-.11351.24272-.15372.69352-.04194.47015-.04333 1.09065-.04333 2.04967s.00139 1.57948.04333 2.04968c.04021.4508.10821.6137.15372.6935.1331.2334.32642.4267.55976.5598.07979.0455.24272.1135.69352.1537.47015.0419 1.09065.0433 2.04967.0433s1.57952-.0014 2.04967-.0433c.4508-.0402.61373-.1082.69352-.1537.23334-.1331.42666-.3264.55976-.5598.04551-.0798.11351-.2427.15372-.6935.02517-.2822.03573-.6185.04016-1.0497-1.53429-.00317-2.35742-.03716-2.98321-.39411-.46668-.26619-.85332-.65283-1.11951-1.11951-.35695-.62579-.39094-1.44891-.39411-2.98319z" fill="#089c96" fill-rule="evenodd"/></svg>