<svg width="18" height="23" viewBox="0 0 18 23" fill="none" xmlns="http://www.w3.org/2000/svg">
<path d="M9.0001 0C6.07054 0 3.52589 2.0154 2.8549 4.86708L0.578472 14.5419C0.283081 15.7973 1.23561 17 2.52531 17H15.4749C16.7646 17 17.7171 15.7973 17.4217 14.5419L15.1453 4.86709C14.4743 2.0154 11.9297 0 9.0001 0Z" fill="#C9CFCF"/>
<path d="M12.7231 19.9655C13.0268 19.1947 12.3285 18.5 11.5001 18.5H6.5001C5.67167 18.5 4.97344 19.1947 5.27708 19.9655C5.86177 21.4497 7.30827 22.5 9.0001 22.5C10.6919 22.5 12.1384 21.4497 12.7231 19.9655Z" fill="#C9CFCF"/>
</svg>
