<svg fill="none" height="16" viewBox="0 0 12 16" width="12" xmlns="http://www.w3.org/2000/svg"><g fill="#fff"><path clip-rule="evenodd" d="m10.5002 4.5c0 2.5-1.50002 5-4.50002 5s-4.5-2.5-4.5-5c0-2 1.5-4.5 4.5-4.5s4.50002 2.5 4.50002 4.5zm-1.50002 0c0 .97034-.29426 1.87291-.7963 2.50046-.47153.58942-1.1692.99954-2.2037.99954s-1.73216-.41012-2.20369-.99954c-.50204-.62755-.79631-1.53012-.79631-2.50046 0-1.39683 1.03703-3 3-3 1.96298 0 3 1.60317 3 3z" fill-rule="evenodd"/><path d="m11.9338 15.2538c-.4323-2.4075-2.92422-4.2538-5.93361-4.2538-3.0094 0-5.501325 1.8463-5.9336342 4.2538-.07320902.4077.2694162.7462.6836292.7462.414215 0 .742395-.3419.858825-.7394.42125-1.4382 2.03904-2.7606 4.39118-2.7606 2.35213 0 3.96992 1.3224 4.39121 2.7606.1164.3975.4446.7394.8588.7394s.7568-.3385.6836-.7462z"/></g></svg>