<svg width="12" height="17" viewBox="0 0 12 17" fill="none" xmlns="http://www.w3.org/2000/svg">
<path fill-rule="evenodd" clip-rule="evenodd" d="M10.4999 5C10.4999 7.5 8.99994 10 5.99994 10C2.99994 10 1.49994 7.5 1.49994 5C1.49994 3 2.99994 0.5 5.99994 0.5C8.99994 0.5 10.4999 3 10.4999 5ZM8.99994 5C8.99994 5.97034 8.70568 6.87291 8.20364 7.50046C7.7321 8.08988 7.03444 8.5 5.99994 8.5C4.96544 8.5 4.26778 8.08988 3.79624 7.50046C3.2942 6.87291 2.99994 5.97034 2.99994 5C2.99994 3.60317 4.03697 2 5.99994 2C7.96291 2 8.99994 3.60317 8.99994 5Z" fill="#272A2A"/>
<path d="M11.9336 15.7538C11.5013 13.3463 9.00934 11.5 5.99994 11.5C2.99055 11.5 0.49862 13.3463 0.0663117 15.7538C-0.00689736 16.1615 0.335728 16.5 0.749941 16.5C1.16415 16.5 1.49234 16.1581 1.60877 15.7606C2.03001 14.3224 3.64781 13 5.99994 13C8.35207 13 9.96987 14.3224 10.3911 15.7606C10.5075 16.1581 10.8357 16.5 11.2499 16.5C11.6642 16.5 12.0068 16.1615 11.9336 15.7538Z" fill="#272A2A"/>
</svg>
