<svg fill="none" height="16" viewBox="0 0 16 16" width="16" xmlns="http://www.w3.org/2000/svg"><g fill="#fff"><path d="m10.0001 15.2163c0 .4213.3473.7624.7679.7399 1.2023-.0642 2.0247-.2226 2.7093-.613.7778-.4437 1.4222-1.0881 1.8658-1.8659.3905-.6846.5488-1.507.613-2.7093.0225-.4207-.3185-.768-.7398-.768-.4072 0-.7375.3251-.7603.7317-.0088.157-.0194.3058-.0321.4475-.0729.812-.2062 1.2436-.3837 1.5549-.3106.5445-.7617.9955-1.3061 1.3061-.3113.1776-.743.3108-1.555.3837-.1416.0127-.2903.0233-.4474.0321-.4066.0228-.7316.3531-.7316.7603z"/><path d="m10.0001.78366c0 .40724.325.73749.7316.76032.1571.00882.3058.01941.4474.03212.812.07287 1.2437.20613 1.555.38369.5444.31056.9955.76163 1.3061 1.3061.1775.3113.3108.74294.3837 1.55494.0127.14166.0233.29042.0321.44751.0228.4066.3531.73166.7603.73166.4213 0 .7623-.34727.7398-.76796-.0642-1.20231-.2225-2.02479-.613-2.70934-.4436-.77781-1.088-1.4222-1.8658-1.865859-.6846-.390446-1.507-.548799-2.7093-.6130233-.4206-.0224731-.7679.3185553-.7679.7398423z"/><path d="m5.23212.0438052c.42069-.0224678.76796.3185588.76796.7398448 0 .40725-.32506.73749-.73167.76032-.15712.00882-.30592.01941-.44761.03213-.81201.07287-1.24365.20613-1.55494.38369-.54447.31056-.99555.76163-1.30611 1.3061-.17756.3113-.31082.74294-.38369 1.55494-.01271.14166-.0233.29042-.03212.44751-.02283.4066-.35308.73166-.760322.73166-.421286 0-.7623135-.34727-.7398431-.76796.0642201-1.20231.2225711-2.02479.6130291-2.70934.443656-.77781 1.088056-1.4222 1.865866-1.865859.68457-.390471 1.50708-.54882 2.70945-.6130358z"/><path d="m5.26841 14.456c.40661.0229.73167.3531.73167.7603 0 .4213-.34727.7624-.76796.7399-1.20237-.0642-2.02488-.2226-2.70945-.613-.77781-.4437-1.42221-1.0881-1.865866-1.8659-.390458-.6846-.548809-1.507-.6130291-2.7093-.0224704-.4207.3185571-.768.7398431-.768.407242 0 .737492.3251.760322.7317.00882.157.01941.3058.03212.4475.07287.812.20613 1.2436.38369 1.5549.31056.5445.76164.9955 1.30611 1.3061.31129.1776.74293.3108 1.55494.3837.14169.0127.29049.0233.44761.0321z"/></g></svg>