<svg fill="none" height="15" viewBox="0 0 16 15" width="16" xmlns="http://www.w3.org/2000/svg"><path clip-rule="evenodd" d="m10.4317 10.9924c-.3534-.3535-.90967-.3821-1.35053-.1464-.77157.4124-1.65297.6462-2.58898.6462-3.03757 0-5.500002-2.46245-5.500002-5.50001 0-3.03757 2.462432-5.500002 5.500002-5.500002 3.03756 0 5.50001 2.462432 5.50001 5.500002 0 .93601-.2338 1.81741-.6462 2.58898-.2357.44086-.2071.9971.1464 1.35057l3.2957 3.29576c.2929.2929.2929.7677 0 1.0606s-.7677.2929-1.0606 0zm.0605-5.00021c0 2.20914-1.79087 4-4.00001 4s-4-1.79086-4-4 1.79086-4 4-4 4.00001 1.79086 4.00001 4z" fill="#798686" fill-rule="evenodd"/></svg>