<svg width="16" height="15" viewBox="0 0 16 15" fill="none"
	xmlns="http://www.w3.org/2000/svg">
	<path d="M7.02658 0.581423C7.21941 0.223316 7.59329 0 8.00001 0C8.40673 0 8.78061 0.223316 8.97344 0.581423L15.6604 13C15.8033 13.2655 15.7734 13.5908 15.5843 13.8258C15.3953 14.0607 15.0839 14.1596 14.794 14.0767L10.7146 12.9112C9.94381 12.691 9.37897 12.0317 9.27953 11.2362L8.56203 5.49614C8.5266 5.2127 8.28565 5 8.00001 5C7.71436 5 7.47342 5.2127 7.43799 5.49614L6.72048 11.2362C6.62104 12.0317 6.0562 12.691 5.28537 12.9112L1.20605 14.0767C0.916097 14.1596 0.60473 14.0607 0.415685 13.8258C0.22664 13.5908 0.196687 13.2655 0.339652 13L7.02658 0.581423Z" fill="#585F5F"/>
</svg>
