<svg fill="none" height="15" viewBox="0 0 16 15" width="16" xmlns="http://www.w3.org/2000/svg"><path d="m7.02658.581423c.19283-.358107.56671-.581423.97343-.581423s.7806.223316.97343.581423l6.68696 12.418577c.1429.2655.113.5908-.0761.8258-.189.2349-.5004.3338-.7903.2509l-4.0794-1.1655c-.77079-.2202-1.33563-.8795-1.43507-1.675l-.7175-5.74006c-.03543-.28344-.27638-.49614-.56202-.49614-.28565 0-.52659.2127-.56202.49614l-.71751 5.74006c-.09944.7955-.66428 1.4548-1.43511 1.675l-4.07932 1.1655c-.289953.0829-.60132-.016-.790365-.2509-.189045-.235-.218998-.5603-.076033-.8258z" fill="#585f5f"/></svg>