<svg fill="none" height="18" viewBox="0 0 18 18" width="18" xmlns="http://www.w3.org/2000/svg"><path d="m7.00049 17.7771v-5.1891c-.74516-.3247-1.41851-.8345-1.94589-1.513-1.18201-1.54339-1.37334-3.62819-.492-5.36097.46172-.92583 1.21217-1.67628 2.138-2.138.24769-.12207.54745-.02023.66952.22747.03471.07042.05234.14803.05148.22653v3.97h3.162v-3.97c-.002-.27613.2203-.50157.4964-.50353.0764-.00055.1518.0164.2206.04953.9243.46243 1.6733 1.2128 2.134 2.138 1.2678 2.45009.3094 5.46407-2.1407 6.73177-.0969.0502-.1947.0968-.2934.1401v5.191c4.0077-.9097 6.9995-4.4939 6.9995-8.7769 0-4.97056-4.0294-9-9-9-4.97056 0-9 4.02944-9 9 0 4.2833 2.99227 7.8678 7.00049 8.7771z" fill="#1b2045"/></svg>