<svg fill="none" height="24" viewBox="0 0 24 24" width="24" xmlns="http://www.w3.org/2000/svg"><path clip-rule="evenodd" d="m12 0c-6.62742 0-12 5.37258-12 12 0 6.6274 5.37258 12 12 12 6.6274 0 12-5.3726 12-12 0-6.62742-5.3726-12-12-12zm-.5526 8.52173v2.92577h-2.9257c-.3842 0-.69565.3114-.69565.6956v.2355c0 .3842.31145.6957.69565.6957h2.9257v2.9257c0 .3842.3115.6956.6957.6956h.2355c.3842 0 .6956-.3114.6956-.6956v-2.9257h2.9258c.3842 0 .6956-.3115.6956-.6957v-.2355c0-.3842-.3114-.6956-.6956-.6956h-2.9258v-2.92577c0-.3842-.3114-.69565-.6956-.69565h-.2355c-.3842 0-.6957.31145-.6957.69565z" fill="#089c96" fill-rule="evenodd"/></svg>