<svg fill="none" height="16" viewBox="0 0 15 16" width="15" xmlns="http://www.w3.org/2000/svg"><path clip-rule="evenodd" d="m15 8c0 4.1421-3.3579 7.5-7.5 7.5-4.14214 0-7.5-3.3579-7.5-7.5 0-4.14214 3.35786-7.5 7.5-7.5 4.1421 0 7.5 3.35786 7.5 7.5zm-2.1125.74951c.3006 0 .5349.26427.4697.55778-.37 1.66481-1.4316 3.06921-2.8677 3.89611-.2026.1166-.4202-.1026-.3332-.3195.4082-1.0185.691-2.2744.7972-3.6578.0204-.26637.2395-.47659.5066-.47659zm.4694-2.05785c.0653.29353-.1689.55785-.4696.55785h-1.4272c-.2672 0-.4863-.2102-.5067-.47655-.1062-1.38305-.389-2.63862-.7971-3.65687-.087-.21694.1306-.4361.3332-.31948 1.4358.82672 2.4973 2.23069 2.8674 3.89505zm-4.40219.55785c.28617 0 .51487-.24002.48961-.52508-.12063-1.36106-.42783-2.53436-.82872-3.3934-.27951-.59895-.54944-.92986-.75376-1.11191-.21112-.18811-.51256-.18811-.72368 0-.20432.18205-.47425.51296-.75376 1.11191-.40088.85904-.70809 2.03234-.82871 3.3934-.02527.28506.20343.52508.48961.52508zm-5.41476 0c.26714 0 .48621-.2102.50666-.47655.10622-1.38305.389-2.63862.7971-3.65687.08695-.21694-.13063-.4361-.33316-.31948-1.43588.82672-2.49734 2.23069-2.86749 3.89505-.06528.29353.16898.55785.46969.55785zm-1.89712 2.05778c-.06522-.29351.16903-.55778.4697-.55778h1.42734c.26715 0 .48623.21022.50667.47659.10616 1.3834.38898 2.6393.79717 3.6578.08695.2169-.13063.4361-.33316.3195-1.43618-.8269-2.49778-2.2313-2.86772-3.89611zm3.91277-.03273c-.02525-.28505.20345-.52505.48961-.52505h2.90958c.28616 0 .51486.24.48961.52505-.12056 1.36144-.42782 2.53514-.8288 3.39444-.27951.5989-.54944.9298-.75376 1.1119-.21112.1881-.51256.1881-.72368 0-.20432-.1821-.47425-.513-.75376-1.1119-.40098-.8593-.70824-2.033-.8288-3.39444z" fill="#c9cfcf" fill-rule="evenodd"/></svg>